<svg height="89.637" viewBox="0 0 89.637 89.637" width="89.637" xmlns="http://www.w3.org/2000/svg"><g fill="#fff"><path d="m106.694 17.613h-88.53a.55.55 0 0 0 -.551.551v29.508a.55.55 0 0 0 .551.551l5.346.005v58.472a.55.55 0 0 0 .551.551h76.729a.55.55 0 0 0 .551-.551l.005-58.47h5.354a.55.55 0 0 0 .551-.551v-29.515a.562.562 0 0 0 -.557-.551zm-3.5 4.054v22.5h-81.527v-22.5zm-75.623 81.524v-54.962h69.718v54.971z" transform="translate(-17.613 -17.613)"/><path d="m72.772 47.465h-35.416a.55.55 0 0 0 -.551.551v11.8a.55.55 0 0 0 .551.551h35.411a.55.55 0 0 0 .551-.551v-11.8a.546.546 0 0 0 -.546-.551zm-31.908 8.859v-4.794h28.4v4.794z" transform="translate(-10.247 -6.156)"/></g></svg>