<svg height="55.23" viewBox="0 0 55.23 55.23" width="55.23" xmlns="http://www.w3.org/2000/svg"><g fill="#1d1d1d" transform="translate(-17.613 -17.613)"><path d="m72.5 17.613h-54.548a.339.339 0 0 0 -.34.34v18.181a.339.339 0 0 0 .34.34h3.294v36.026a.339.339 0 0 0 .34.34h47.277a.339.339 0 0 0 .34-.34v-36.027h3.3a.339.339 0 0 0 .34-.34v-18.18a.346.346 0 0 0 -.343-.34zm-2.158 2.5v13.863h-50.231v-13.865zm-46.594 50.229v-33.865h42.958v33.869z"/><path d="m58.966 47.465h-21.822a.339.339 0 0 0 -.34.34v7.271a.339.339 0 0 0 .34.34h21.819a.339.339 0 0 0 .34-.34v-7.276a.336.336 0 0 0 -.336-.34zm-19.66 5.459v-2.954h17.494v2.954z" transform="translate(-2.829 -4.4)"/></g></svg>