<svg xmlns="http://www.w3.org/2000/svg" width="56.25" height="71.094" viewBox="0 0 56.25 71.094"><defs><style>.a{fill:#1d1d1d;}</style></defs><g transform="translate(-21.875 -14.063)"><path class="a" d="M50,78.594A12.344,12.344,0,1,0,37.656,66.25,12.37,12.37,0,0,0,50,78.594Zm0-21.406a9.219,9.219,0,1,1,0,18.438,9.137,9.137,0,0,1-9.219-9.219A9.236,9.236,0,0,1,50,57.188Z"/><path class="a" d="M23.438,35.938h3.125c.781,0,1.563.625,1.563,1.094v3.594a1.476,1.476,0,0,0,1.563,1.563H31.25V64.063a.574.574,0,0,0,.156.469c0,.625-.156,1.25-.156,1.875a18.75,18.75,0,0,0,37.5,0,7.607,7.607,0,0,0-.156-1.875c0-.156.156-.312.156-.469V42.188h1.563a1.476,1.476,0,0,0,1.563-1.562V35.938h4.688a1.476,1.476,0,0,0,1.563-1.562v-12.5a1.476,1.476,0,0,0-1.562-1.562H73.438V15.626a1.476,1.476,0,0,0-1.562-1.562H62.5a1.476,1.476,0,0,0-1.562,1.563v4.688H57.813a1.476,1.476,0,0,0-1.562,1.563v12.5a1.476,1.476,0,0,0,1.563,1.563H62.5v4.688a1.476,1.476,0,0,0,1.563,1.563h1.563v13.75A18.962,18.962,0,0,0,50,47.5a18.581,18.581,0,0,0-15.625,8.438V42.188h1.563A1.476,1.476,0,0,0,37.5,40.626V37.032c0-.469.938-1.094,1.563-1.094h3.125a1.476,1.476,0,0,0,1.563-1.562v-12.5a1.476,1.476,0,0,0-1.562-1.562H39.063V15.626A1.476,1.476,0,0,0,37.5,14.063H28.126a1.476,1.476,0,0,0-1.562,1.563v4.688H23.438a1.476,1.476,0,0,0-1.562,1.563v12.5a1.476,1.476,0,0,0,1.563,1.563Zm40.625-18.75h6.25v3.125h-6.25ZM62.5,32.813H59.376V23.438H75v9.375H71.563a2.97,2.97,0,0,0-2.031.781,4.1,4.1,0,0,0-.781,2.969v2.5H65.626V37.032c0-1.094,0-4.219-3.125-4.219ZM50,50.782A15.625,15.625,0,1,1,34.376,66.407,15.671,15.671,0,0,1,50,50.782ZM29.689,17.188h6.25v3.125h-6.25ZM25,23.438H40.626v9.375H39.064c-2.187,0-4.687,1.875-4.687,4.219v2.031H31.251V37.032c0-2.5-2.5-4.219-4.687-4.219H25Z"/></g></svg>