<?xml version="1.0" encoding="UTF-8"?>
<svg xmlns="http://www.w3.org/2000/svg" height="80.781" viewBox="0 0 91.043 80.781" width="91.043">
  <g fill="#fff">
    <path d="m14.149 28.14h13.612a9.707 9.707 0 0 0 18.962 0h54.267a2.094 2.094 0 1 0 0-4.189h-54.267a9.71 9.71 0 0 0 -18.967 0h-13.607a2.094 2.094 0 1 0 0 4.189zm23.095-7.623a5.529 5.529 0 1 1 -5.529 5.529 5.533 5.533 0 0 1 5.529-5.529z" transform="translate(-12.055 -16.328)"></path>
    <path d="m14.149 53.71h56.811a9.716 9.716 0 0 0 18.976 0h11.064a2.094 2.094 0 0 0 0-4.189h-11.063a9.716 9.716 0 0 0 -18.976 0h-56.812a2.094 2.094 0 1 0 0 4.189zm66.3-7.623a5.529 5.529 0 1 1 -5.529 5.529 5.533 5.533 0 0 1 5.525-5.529z" transform="translate(-12.055 -11.228)"></path>
    <path d="m14.149 79.28h28.859a9.715 9.715 0 0 0 18.976 0h39.016a2.094 2.094 0 1 0 0-4.189h-39.016a9.716 9.716 0 0 0 -18.976 0h-28.859a2.094 2.094 0 1 0 0 4.189zm38.341-7.628a5.529 5.529 0 1 1 -5.529 5.529 5.533 5.533 0 0 1 5.53-5.529z" transform="translate(-12.055 -6.127)"></path>
  </g>
</svg>
