<?xml version="1.0" encoding="UTF-8"?>
<svg xmlns="http://www.w3.org/2000/svg" height="58.945" viewBox="0 0 89.812 58.945" width="89.812">
  <g fill="#1d1d1d" transform="translate(-.006 -17.187)">
    <path d="m26.361 33.284 2.649-.961-6.688-14.323a1.4 1.4 0 0 0 -2.544 0l-19.647 42.1a1.418 1.418 0 0 0 1.274 2h18.243v-2.81h-16.04l17.444-37.38z"></path>
    <path d="m75.41 20.312a20.34 20.34 0 0 0 -17.066 9.288l2.719.986a17.538 17.538 0 1 1 15.048 27.6v2.807a20.347 20.347 0 0 0 -.7-40.683z" transform="translate(-5.939 -.318)"></path>
    <path d="m67.131 38.11-18.244-6.61a4.192 4.192 0 0 0 -2.866 0l-18.244 6.61a4.226 4.226 0 0 0 -2.777 3.961v23.62a4.2 4.2 0 0 0 2.579 3.88l18.244 7.666a4.233 4.233 0 0 0 3.259 0l18.244-7.666a4.21 4.21 0 0 0 2.579-3.88v-23.62a4.224 4.224 0 0 0 -2.779-3.961zm-20.157-3.969a1.4 1.4 0 0 1 .958 0l17.483 6.333-18.055 6.817-17.879-6.813zm-18.307 32.84a1.39 1.39 0 0 1 -.86-1.291v-22.848l18.244 6.958v24.489zm37.577 0-17.385 7.308v-24.563l18.241-6.888v22.851a1.4 1.4 0 0 1 -.86 1.291z" transform="translate(-2.545 -1.432)"></path>
  </g>
</svg>
