<?xml version="1.0" encoding="UTF-8"?>
<svg xmlns="http://www.w3.org/2000/svg" height="54.347" viewBox="0 0 61.251 54.347" width="61.251">
  <g fill="#1d1d1d" transform="translate(-12.055 -16.328)">
    <path d="m13.464 24.275h9.158a6.531 6.531 0 0 0 12.757 0h36.509a1.409 1.409 0 1 0 0-2.818h-36.509a6.533 6.533 0 0 0 -12.76 0h-9.155a1.409 1.409 0 1 0 0 2.818zm15.536-5.129a3.72 3.72 0 1 1 -3.72 3.72 3.722 3.722 0 0 1 3.72-3.72z"></path>
    <path d="m13.464 49.845h38.221a6.537 6.537 0 0 0 12.767 0h7.448a1.409 1.409 0 0 0 0-2.818h-7.449a6.537 6.537 0 0 0 -12.767 0h-38.22a1.409 1.409 0 0 0 0 2.818zm44.6-5.129a3.72 3.72 0 1 1 -3.72 3.72 3.722 3.722 0 0 1 3.721-3.72z" transform="translate(0 -4.936)"></path>
    <path d="m13.464 75.415h19.415a6.536 6.536 0 0 0 12.767 0h26.248a1.409 1.409 0 0 0 0-2.818h-26.249a6.537 6.537 0 0 0 -12.767 0h-19.414a1.409 1.409 0 0 0 0 2.818zm25.795-5.132a3.72 3.72 0 1 1 -3.72 3.717 3.722 3.722 0 0 1 3.72-3.717z" transform="translate(0 -9.872)"></path>
  </g>
</svg>
