<?xml version="1.0" encoding="UTF-8"?>
<svg xmlns="http://www.w3.org/2000/svg" height="64.005" viewBox="0 0 81.298 64.005" width="81.298">
  <g fill="#1d1d1d" transform="translate(-2.996 -12.996)">
    <path d="m9.057 13a6.09 6.09 0 0 0 -6.057 6.053v43.247a6.082 6.082 0 0 0 6.061 6.051h69.182a6.073 6.073 0 0 0 6.051-6.051v-43.247a6.081 6.081 0 0 0 -6.051-6.053zm0 3.459h69.186a2.553 2.553 0 0 1 2.591 2.6v37.19h-74.375v-37.196a2.557 2.557 0 0 1 2.598-2.598zm-2.6 43.251h74.378v2.59a2.548 2.548 0 0 1 -2.591 2.591h-69.187a2.551 2.551 0 0 1 -2.6-2.591z"></path>
    <path d="m48.358 79.973a1.732 1.732 0 0 0 -1.706 1.757v.861h-6.916a1.73 1.73 0 0 0 0 3.459h17.3a1.73 1.73 0 1 0 0-3.459h-6.922v-.861a1.73 1.73 0 0 0 -1.756-1.757z" transform="translate(-4.736 -9.05)"></path>
    <path d="m86.447 69.73a1.73 1.73 0 1 1 -.507-1.223 1.729 1.729 0 0 1 .507 1.223z" transform="translate(-10.809 -7.432)"></path>
  </g>
</svg>
