<?xml version="1.0" encoding="UTF-8"?>
<svg xmlns="http://www.w3.org/2000/svg" height="94.499" viewBox="0 0 100.113 94.499" width="100.113">
  <g fill="#fff">
    <path d="m27.384 36.628c-1.724 2.8-5.983.172-4.258-2.624a41.551 41.551 0 1 1 0 43.467c-1.724-2.8 2.538-5.42 4.258-2.624a36.537 36.537 0 1 0 0-38.219z" transform="translate(.021 -2.789)"></path>
    <path d="m56.023 36.2c0-3.281 4.99-3.281 4.99 0l-.013 18.379 10.835 9.377c2.479 2.143-.786 5.916-3.265 3.777l-11.7-10.127a2.494 2.494 0 0 1 -.87-1.889l.016-19.52z" transform="translate(.056 -2.769)"></path>
    <path d="m42.05 7.8c-3.292 0-3.292-5 0-5h32.935c3.292 0 3.292 5 0 5z" transform="translate(.039 -2.801)"></path>
    <path d="m14.1 47.4c-3.292 0-3.292-5 0-5h24.021c3.292 0 3.292 5 0 5z" transform="translate(.01 -2.76)"></path>
    <path d="m8.284 58.2c-3.292 0-3.292-5 0-5h29.85c3.292 0 3.292 5 0 5z" transform="translate(.004 -2.749)"></path>
    <path d="m2.471 69c-3.292 0-3.292-5 0-5h35.666c3.292 0 3.292 5 0 5z" transform="translate(-.002 -2.738)"></path>
  </g>
</svg>
