<?xml version="1.0" encoding="UTF-8"?>
<svg xmlns="http://www.w3.org/2000/svg" height="63.609" viewBox="0 0 67.388 63.609" width="67.388">
  <g fill="#1d1d1d">
    <path d="m25.86 29.292a1.684 1.684 0 0 1 -2.866-1.766 27.969 27.969 0 1 1 0 29.258 1.684 1.684 0 0 1 2.866-1.766 24.594 24.594 0 1 0 0-25.726z" transform="translate(-7.413 -6.515)"></path>
    <path d="m56.016 35.393a1.679 1.679 0 0 1 3.359 0l-.011 12.373 7.293 6.312a1.681 1.681 0 0 1 -2.2 2.543l-7.873-6.821a1.679 1.679 0 0 1 -.584-1.268l.011-13.139z" transform="translate(-18.269 -12.892)"></path>
    <path d="m41.242 6.167a1.683 1.683 0 0 1 0-3.366h22.17a1.683 1.683 0 0 1 0 3.366z" transform="translate(-12.912 -2.801)"></path>
    <path d="m13.289 45.765a1.683 1.683 0 0 1 0-3.366h16.172a1.683 1.683 0 0 1 0 3.366z" transform="translate(-3.794 -15.717)"></path>
    <path d="m7.477 56.565a1.683 1.683 0 0 1 0-3.366h20.093a1.683 1.683 0 0 1 0 3.366z" transform="translate(-1.898 -19.24)"></path>
    <path d="m1.664 67.366a1.683 1.683 0 0 1 0-3.366h24.007a1.683 1.683 0 0 1 0 3.366z" transform="translate(-.002 -22.763)"></path>
  </g>
</svg>
