<svg fill="none" height="70" viewBox="0 0 137 70" width="137" xmlns="http://www.w3.org/2000/svg"><g fill="#fff"><path d="m69.6437 0h-69.6437v69.6437h69.6437z"/><path d="m88.5531 37.5105-3.4818 3.6294v6.5566h-5.9631v-25.9238h5.9631v12.1075l11.4826-12.1075h6.6651l-10.7397 11.5529 11.3757 14.3718h-7.0017z"/><path d="m105.406 21.7727h6.001v25.9238h-6.001z"/><path d="m121.814 26.6605h-8.297v-4.8878h22.594v4.8878h-8.297v21.036h-6z"/></g><path d="m20.3339 26.8516h-7.9706v-4.6958h21.7043v4.6958h-7.9706v20.2097h-5.7631z" fill="#010101"/><path d="m55.5366 34.7326c1.1624 1.2702 1.7436 2.8417 1.7436 4.7144.0084 1.4142-.3864 2.8015-1.1384 3.9991-.7595 1.2223-1.9148 2.1998-3.4659 2.9326-1.551.733-3.4546 1.1009-5.7106 1.1038-1.7489.0006-3.4898-.2328-5.1766-.6941-1.6963-.4626-3.1371-1.1208-4.3226-1.9745l2.2412-4.4124c.9937.7349 2.1059 1.2946 3.2882 1.6547 1.2364.3894 2.525.5873 3.8213.5866 1.4468 0 2.5855-.2785 3.4161-.8354.8307-.5569 1.2454-1.3458 1.2442-2.3666 0-2.0393-1.5538-3.0591-4.6612-3.0597h-2.6287v-3.8009l5.1233-5.7996h-10.6029v-4.6212h17.4342v3.7325l-5.6218 6.4048c2.1814.3548 3.8536 1.1668 5.0166 2.4359z" fill="#010101"/></svg>