<?xml version="1.0" encoding="UTF-8"?>
<svg xmlns="http://www.w3.org/2000/svg" xmlns:xlink="http://www.w3.org/1999/xlink" fill="none" height="784" viewBox="0 0 1532 784" width="1532">
  <clipPath id="a">
    <path d="m0 0h1531.6v783.67h-1531.6z"></path>
  </clipPath>
  <g clip-path="url(#a)">
    <path d="m783.67 0h-783.67v783.67h783.67z" fill="#010101"></path>
    <g fill="#fff">
      <path d="m996.45 422.09-39.18 40.84v73.78h-67.1v-291.71h67.1v136.24l129.21-136.24h75l-120.85 130 128 161.72h-78.78z"></path>
      <path d="m1186.09 245h67.52v291.71h-67.52z"></path>
      <path d="m1370.72 300h-93.36v-55h254.24v55h-93.36v236.71h-67.52z"></path>
      <path d="m228.81 302.15h-89.69v-52.84h244.23v52.84h-89.69v227.41h-64.85z"></path>
      <path d="m624.93 390.83c13.08 14.293 19.62 31.977 19.62 53.05.095 15.913-4.349 31.523-12.81 45-8.547 13.753-21.547 24.753-39 33s-38.873 12.387-64.26 12.42c-19.678.007-39.269-2.62-58.25-7.81-19.087-5.207-35.3-12.613-48.64-22.22l25.22-49.65c11.182 8.27 23.695 14.568 37 18.62 13.912 4.382 28.414 6.608 43 6.6 16.28 0 29.093-3.133 38.44-9.4s14.013-15.143 14-26.63c0-22.947-17.483-34.423-52.45-34.43h-29.58v-42.77l57.65-65.26h-119.31v-52h196.18v42l-63.26 72.07c24.547 3.993 43.363 13.13 56.45 27.41z"></path>
    </g>
  </g>
</svg>
