<svg fill="none" height="100" viewBox="0 0 100 100" width="100" xmlns="http://www.w3.org/2000/svg" xmlns:xlink="http://www.w3.org/1999/xlink"><clipPath id="a"><path d="m0 0h99.72v99.72h-99.72z"/></clipPath><g clip-path="url(#a)"><path d="m99.72 0h-99.72v99.72h99.72z" fill="#000"/><g fill="#fff"><path d="m29.11 38.45h-11.41v-6.72h31.08v6.72h-11.41v28.94h-8.26z"/><path d="m79.52 49.73c1.67 1.8444 2.5622 4.263 2.49 6.75.0152 2.0296-.5503 4.0213-1.63 5.74-1.2166 1.862-2.956 3.3231-5 4.2-2.5771 1.1225-5.3703 1.662-8.18 1.58-2.5038.0025-4.9965-.3339-7.41-1-2.2155-.562-4.312-1.5172-6.19-2.82l3.28-6.3c1.4237 1.0522 3.0166 1.8537 4.71 2.37 1.7729.5587 3.6211.842 5.48.84 1.7037.0836 3.3943-.3373 4.86-1.21.5673-.3599 1.0303-.8624 1.3426-1.4573.3124-.5949.4632-1.2613.4374-1.9327 0-2.92-2.2234-4.38-6.67-4.38h-3.77v-5.46l7.33-8.3h-15.18v-6.62h25v5.35l-8 9.17c2.6918.3246 5.1944 1.5512 7.1 3.48z"/></g></g></svg>